<mxfile host="Electron" modified="2024-05-14T08:45:45.159Z" agent="Mozilla/5.0 (Windows NT 10.0; Win64; x64) AppleWebKit/537.36 (KHTML, like Gecko) draw.io/24.1.0 Chrome/120.0.6099.109 Electron/28.1.0 Safari/537.36" etag="knJ-QhOLwN9e0XlXFMDc" version="24.1.0" type="device" pages="2">
  <diagram name="PÃ¡gina-1" id="n4pkcfkecWeJMhRiiakj">
    <mxGraphModel dx="1905" dy="654" grid="1" gridSize="10" guides="1" tooltips="1" connect="1" arrows="1" fold="1" page="0" pageScale="1" pageWidth="827" pageHeight="1169" math="0" shadow="0">
      <root>
        <mxCell id="0" />
        <mxCell id="1" parent="0" />
        <mxCell id="dxCw5hH_hTkIz4HJF2Ry-19" style="edgeStyle=orthogonalEdgeStyle;rounded=0;orthogonalLoop=1;jettySize=auto;html=1;endArrow=none;endFill=0;" parent="1" source="dxCw5hH_hTkIz4HJF2Ry-11" target="dxCw5hH_hTkIz4HJF2Ry-18" edge="1">
          <mxGeometry relative="1" as="geometry" />
        </mxCell>
        <mxCell id="dxCw5hH_hTkIz4HJF2Ry-37" style="edgeStyle=orthogonalEdgeStyle;rounded=0;orthogonalLoop=1;jettySize=auto;html=1;entryX=1;entryY=0.5;entryDx=0;entryDy=0;endArrow=none;endFill=0;" parent="1" source="dxCw5hH_hTkIz4HJF2Ry-11" target="dxCw5hH_hTkIz4HJF2Ry-12" edge="1">
          <mxGeometry relative="1" as="geometry">
            <Array as="points">
              <mxPoint x="-40" y="110" />
            </Array>
          </mxGeometry>
        </mxCell>
        <mxCell id="dxCw5hH_hTkIz4HJF2Ry-41" style="edgeStyle=orthogonalEdgeStyle;rounded=0;orthogonalLoop=1;jettySize=auto;html=1;entryX=0;entryY=0.5;entryDx=0;entryDy=0;endArrow=none;endFill=0;" parent="1" source="dxCw5hH_hTkIz4HJF2Ry-11" target="dxCw5hH_hTkIz4HJF2Ry-29" edge="1">
          <mxGeometry relative="1" as="geometry">
            <Array as="points">
              <mxPoint x="15" y="110" />
            </Array>
          </mxGeometry>
        </mxCell>
        <mxCell id="dxCw5hH_hTkIz4HJF2Ry-11" value="Cliente" style="whiteSpace=wrap;html=1;align=center;" parent="1" vertex="1">
          <mxGeometry x="-65" y="585" width="100" height="40" as="geometry" />
        </mxCell>
        <mxCell id="dxCw5hH_hTkIz4HJF2Ry-15" style="edgeStyle=orthogonalEdgeStyle;rounded=0;orthogonalLoop=1;jettySize=auto;html=1;endArrow=none;endFill=0;" parent="1" source="dxCw5hH_hTkIz4HJF2Ry-12" edge="1">
          <mxGeometry relative="1" as="geometry">
            <mxPoint x="-385" y="430" as="targetPoint" />
          </mxGeometry>
        </mxCell>
        <mxCell id="dxCw5hH_hTkIz4HJF2Ry-12" value="carrito" style="shape=rhombus;perimeter=rhombusPerimeter;whiteSpace=wrap;html=1;align=center;" parent="1" vertex="1">
          <mxGeometry x="-266" y="80" width="116" height="60" as="geometry" />
        </mxCell>
        <mxCell id="dxCw5hH_hTkIz4HJF2Ry-14" value="Producto" style="whiteSpace=wrap;html=1;align=center;" parent="1" vertex="1">
          <mxGeometry x="-435" y="430" width="100" height="40" as="geometry" />
        </mxCell>
        <mxCell id="dxCw5hH_hTkIz4HJF2Ry-43" style="edgeStyle=orthogonalEdgeStyle;rounded=0;orthogonalLoop=1;jettySize=auto;html=1;entryX=0;entryY=0.5;entryDx=0;entryDy=0;endArrow=none;endFill=0;" parent="1" source="dxCw5hH_hTkIz4HJF2Ry-18" target="dxCw5hH_hTkIz4HJF2Ry-20" edge="1">
          <mxGeometry relative="1" as="geometry" />
        </mxCell>
        <mxCell id="dxCw5hH_hTkIz4HJF2Ry-18" value="realiza" style="shape=rhombus;perimeter=rhombusPerimeter;whiteSpace=wrap;html=1;align=center;" parent="1" vertex="1">
          <mxGeometry x="100" y="280" width="120" height="60" as="geometry" />
        </mxCell>
        <mxCell id="dxCw5hH_hTkIz4HJF2Ry-20" value="compra" style="whiteSpace=wrap;html=1;align=center;" parent="1" vertex="1">
          <mxGeometry x="325" y="290" width="100" height="40" as="geometry" />
        </mxCell>
        <mxCell id="dxCw5hH_hTkIz4HJF2Ry-24" style="edgeStyle=orthogonalEdgeStyle;rounded=0;orthogonalLoop=1;jettySize=auto;html=1;entryX=0.5;entryY=1;entryDx=0;entryDy=0;endArrow=none;endFill=0;" parent="1" source="dxCw5hH_hTkIz4HJF2Ry-22" target="dxCw5hH_hTkIz4HJF2Ry-23" edge="1">
          <mxGeometry relative="1" as="geometry" />
        </mxCell>
        <mxCell id="dxCw5hH_hTkIz4HJF2Ry-22" value="tarjetas" style="whiteSpace=wrap;html=1;align=center;" parent="1" vertex="1">
          <mxGeometry x="175" y="750" width="100" height="40" as="geometry" />
        </mxCell>
        <mxCell id="dxCw5hH_hTkIz4HJF2Ry-25" style="edgeStyle=orthogonalEdgeStyle;rounded=0;orthogonalLoop=1;jettySize=auto;html=1;entryX=0.5;entryY=1;entryDx=0;entryDy=0;endArrow=none;endFill=0;" parent="1" source="dxCw5hH_hTkIz4HJF2Ry-23" target="dxCw5hH_hTkIz4HJF2Ry-20" edge="1">
          <mxGeometry relative="1" as="geometry">
            <Array as="points">
              <mxPoint x="375" y="470" />
              <mxPoint x="375" y="470" />
            </Array>
          </mxGeometry>
        </mxCell>
        <mxCell id="dxCw5hH_hTkIz4HJF2Ry-23" value="pagan" style="shape=rhombus;perimeter=rhombusPerimeter;whiteSpace=wrap;html=1;align=center;" parent="1" vertex="1">
          <mxGeometry x="315" y="580" width="120" height="60" as="geometry" />
        </mxCell>
        <mxCell id="dxCw5hH_hTkIz4HJF2Ry-28" style="edgeStyle=orthogonalEdgeStyle;rounded=0;orthogonalLoop=1;jettySize=auto;html=1;entryX=0.5;entryY=1;entryDx=0;entryDy=0;endArrow=none;endFill=0;" parent="1" source="dxCw5hH_hTkIz4HJF2Ry-26" target="dxCw5hH_hTkIz4HJF2Ry-11" edge="1">
          <mxGeometry relative="1" as="geometry" />
        </mxCell>
        <mxCell id="DulJp_5TrpF9KenEgapy-1" style="edgeStyle=orthogonalEdgeStyle;rounded=0;orthogonalLoop=1;jettySize=auto;html=1;endArrow=none;endFill=0;" parent="1" source="dxCw5hH_hTkIz4HJF2Ry-26" target="dxCw5hH_hTkIz4HJF2Ry-22" edge="1">
          <mxGeometry relative="1" as="geometry" />
        </mxCell>
        <mxCell id="dxCw5hH_hTkIz4HJF2Ry-26" value="pertenece" style="shape=rhombus;perimeter=rhombusPerimeter;whiteSpace=wrap;html=1;align=center;" parent="1" vertex="1">
          <mxGeometry x="-75" y="740" width="120" height="60" as="geometry" />
        </mxCell>
        <mxCell id="dxCw5hH_hTkIz4HJF2Ry-42" style="edgeStyle=orthogonalEdgeStyle;rounded=0;orthogonalLoop=1;jettySize=auto;html=1;entryX=0.5;entryY=0;entryDx=0;entryDy=0;endArrow=none;endFill=0;" parent="1" source="dxCw5hH_hTkIz4HJF2Ry-29" target="dxCw5hH_hTkIz4HJF2Ry-20" edge="1">
          <mxGeometry relative="1" as="geometry">
            <mxPoint x="155" y="220" as="targetPoint" />
            <Array as="points">
              <mxPoint x="375" y="110" />
            </Array>
          </mxGeometry>
        </mxCell>
        <mxCell id="dxCw5hH_hTkIz4HJF2Ry-29" value="historial" style="shape=rhombus;perimeter=rhombusPerimeter;whiteSpace=wrap;html=1;align=center;" parent="1" vertex="1">
          <mxGeometry x="130" y="80" width="120" height="60" as="geometry" />
        </mxCell>
        <mxCell id="dxCw5hH_hTkIz4HJF2Ry-39" style="edgeStyle=orthogonalEdgeStyle;rounded=0;orthogonalLoop=1;jettySize=auto;html=1;entryX=0.5;entryY=1;entryDx=0;entryDy=0;endArrow=none;endFill=0;" parent="1" source="dxCw5hH_hTkIz4HJF2Ry-33" edge="1">
          <mxGeometry relative="1" as="geometry">
            <mxPoint x="-385" y="470" as="targetPoint" />
            <Array as="points">
              <mxPoint x="-385" y="600" />
            </Array>
          </mxGeometry>
        </mxCell>
        <mxCell id="dxCw5hH_hTkIz4HJF2Ry-33" value="puede agregar/retirar/modificar&lt;div&gt;&lt;br&gt;&lt;/div&gt;" style="shape=rhombus;perimeter=rhombusPerimeter;whiteSpace=wrap;html=1;align=center;" parent="1" vertex="1">
          <mxGeometry x="-460" y="670" width="150" height="90" as="geometry" />
        </mxCell>
        <mxCell id="DulJp_5TrpF9KenEgapy-7" style="edgeStyle=orthogonalEdgeStyle;rounded=0;orthogonalLoop=1;jettySize=auto;html=1;entryX=0.5;entryY=1;entryDx=0;entryDy=0;endArrow=none;endFill=0;" parent="1" source="DulJp_5TrpF9KenEgapy-4" target="dxCw5hH_hTkIz4HJF2Ry-33" edge="1">
          <mxGeometry relative="1" as="geometry" />
        </mxCell>
        <mxCell id="DulJp_5TrpF9KenEgapy-4" value="Administrador" style="whiteSpace=wrap;html=1;align=center;" parent="1" vertex="1">
          <mxGeometry x="-258" y="860" width="100" height="40" as="geometry" />
        </mxCell>
        <mxCell id="DulJp_5TrpF9KenEgapy-16" style="edgeStyle=orthogonalEdgeStyle;rounded=0;orthogonalLoop=1;jettySize=auto;html=1;entryX=0.5;entryY=0;entryDx=0;entryDy=0;endArrow=none;endFill=0;" parent="1" source="DulJp_5TrpF9KenEgapy-11" target="DulJp_5TrpF9KenEgapy-13" edge="1">
          <mxGeometry relative="1" as="geometry" />
        </mxCell>
        <mxCell id="DulJp_5TrpF9KenEgapy-11" value="Usuario" style="whiteSpace=wrap;html=1;align=center;" parent="1" vertex="1">
          <mxGeometry x="-258" y="240" width="100" height="40" as="geometry" />
        </mxCell>
        <mxCell id="DulJp_5TrpF9KenEgapy-14" style="edgeStyle=orthogonalEdgeStyle;rounded=0;orthogonalLoop=1;jettySize=auto;html=1;entryX=0.5;entryY=0;entryDx=0;entryDy=0;endArrow=none;endFill=0;" parent="1" source="DulJp_5TrpF9KenEgapy-13" target="DulJp_5TrpF9KenEgapy-4" edge="1">
          <mxGeometry relative="1" as="geometry" />
        </mxCell>
        <mxCell id="DulJp_5TrpF9KenEgapy-15" style="edgeStyle=orthogonalEdgeStyle;rounded=0;orthogonalLoop=1;jettySize=auto;html=1;entryX=0;entryY=0.5;entryDx=0;entryDy=0;endArrow=none;endFill=0;" parent="1" source="DulJp_5TrpF9KenEgapy-13" target="dxCw5hH_hTkIz4HJF2Ry-11" edge="1">
          <mxGeometry relative="1" as="geometry" />
        </mxCell>
        <mxCell id="DulJp_5TrpF9KenEgapy-13" value="T.S" style="ellipse;whiteSpace=wrap;html=1;align=center;" parent="1" vertex="1">
          <mxGeometry x="-253" y="562.5" width="90" height="85" as="geometry" />
        </mxCell>
        <mxCell id="aMjsHxabeolqDeIkSZId-87" style="edgeStyle=orthogonalEdgeStyle;rounded=0;orthogonalLoop=1;jettySize=auto;html=1;entryX=0;entryY=0.5;entryDx=0;entryDy=0;endArrow=none;endFill=0;" edge="1" parent="1" source="aMjsHxabeolqDeIkSZId-1" target="DulJp_5TrpF9KenEgapy-11">
          <mxGeometry relative="1" as="geometry" />
        </mxCell>
        <mxCell id="aMjsHxabeolqDeIkSZId-1" value="&lt;font style=&quot;font-size: 9px;&quot;&gt;Id_usuario&lt;/font&gt;" style="ellipse;whiteSpace=wrap;html=1;align=center;fontStyle=4;" vertex="1" parent="1">
          <mxGeometry x="-350" y="245" width="60" height="30" as="geometry" />
        </mxCell>
        <mxCell id="aMjsHxabeolqDeIkSZId-77" style="edgeStyle=orthogonalEdgeStyle;rounded=0;orthogonalLoop=1;jettySize=auto;html=1;entryX=0.75;entryY=0;entryDx=0;entryDy=0;endArrow=none;endFill=0;" edge="1" parent="1" source="aMjsHxabeolqDeIkSZId-11" target="dxCw5hH_hTkIz4HJF2Ry-14">
          <mxGeometry relative="1" as="geometry">
            <Array as="points">
              <mxPoint x="-330" y="420" />
              <mxPoint x="-360" y="420" />
            </Array>
          </mxGeometry>
        </mxCell>
        <mxCell id="aMjsHxabeolqDeIkSZId-11" value="&lt;font size=&quot;1&quot;&gt;Id_producto&lt;/font&gt;" style="ellipse;whiteSpace=wrap;html=1;align=center;fontStyle=4;" vertex="1" parent="1">
          <mxGeometry x="-360" y="370" width="60" height="30" as="geometry" />
        </mxCell>
        <mxCell id="aMjsHxabeolqDeIkSZId-12" value="&lt;font style=&quot;font-size: 9px;&quot;&gt;Id_tarjeta&lt;/font&gt;" style="ellipse;whiteSpace=wrap;html=1;align=center;fontStyle=4;" vertex="1" parent="1">
          <mxGeometry x="180" y="830" width="60" height="30" as="geometry" />
        </mxCell>
        <mxCell id="aMjsHxabeolqDeIkSZId-13" value="&lt;font style=&quot;font-size: 9px;&quot;&gt;Id_compra&lt;/font&gt;" style="ellipse;whiteSpace=wrap;html=1;align=center;fontStyle=4;" vertex="1" parent="1">
          <mxGeometry x="290" y="230" width="60" height="30" as="geometry" />
        </mxCell>
        <mxCell id="aMjsHxabeolqDeIkSZId-40" style="edgeStyle=orthogonalEdgeStyle;rounded=0;orthogonalLoop=1;jettySize=auto;html=1;entryX=1;entryY=0;entryDx=0;entryDy=0;endArrow=none;endFill=0;" edge="1" parent="1" source="aMjsHxabeolqDeIkSZId-22" target="dxCw5hH_hTkIz4HJF2Ry-29">
          <mxGeometry relative="1" as="geometry" />
        </mxCell>
        <mxCell id="aMjsHxabeolqDeIkSZId-22" value="&lt;span style=&quot;border-bottom: 1px dotted&quot;&gt;&lt;font style=&quot;font-size: 9px;&quot;&gt;Id_compra&lt;/font&gt;&lt;/span&gt;" style="ellipse;whiteSpace=wrap;html=1;align=center;" vertex="1" parent="1">
          <mxGeometry x="215" y="40" width="60" height="30" as="geometry" />
        </mxCell>
        <mxCell id="aMjsHxabeolqDeIkSZId-39" style="edgeStyle=orthogonalEdgeStyle;rounded=0;orthogonalLoop=1;jettySize=auto;html=1;entryX=0;entryY=0;entryDx=0;entryDy=0;endArrow=none;endFill=0;" edge="1" parent="1" source="aMjsHxabeolqDeIkSZId-23" target="dxCw5hH_hTkIz4HJF2Ry-29">
          <mxGeometry relative="1" as="geometry" />
        </mxCell>
        <mxCell id="aMjsHxabeolqDeIkSZId-23" value="&lt;span style=&quot;border-bottom: 1px dotted&quot;&gt;&lt;font style=&quot;font-size: 9px;&quot;&gt;Id_usuario&lt;/font&gt;&lt;/span&gt;" style="ellipse;whiteSpace=wrap;html=1;align=center;" vertex="1" parent="1">
          <mxGeometry x="110" y="40" width="60" height="30" as="geometry" />
        </mxCell>
        <mxCell id="aMjsHxabeolqDeIkSZId-35" style="edgeStyle=orthogonalEdgeStyle;rounded=0;orthogonalLoop=1;jettySize=auto;html=1;entryX=1;entryY=0;entryDx=0;entryDy=0;endArrow=none;endFill=0;" edge="1" parent="1" source="aMjsHxabeolqDeIkSZId-24" target="dxCw5hH_hTkIz4HJF2Ry-12">
          <mxGeometry relative="1" as="geometry" />
        </mxCell>
        <mxCell id="aMjsHxabeolqDeIkSZId-24" value="&lt;span style=&quot;border-bottom: 1px dotted&quot;&gt;&lt;font style=&quot;font-size: 9px;&quot;&gt;Id_usuario&lt;/font&gt;&lt;/span&gt;" style="ellipse;whiteSpace=wrap;html=1;align=center;" vertex="1" parent="1">
          <mxGeometry x="-178" y="30" width="60" height="30" as="geometry" />
        </mxCell>
        <mxCell id="aMjsHxabeolqDeIkSZId-34" style="edgeStyle=orthogonalEdgeStyle;rounded=0;orthogonalLoop=1;jettySize=auto;html=1;entryX=0;entryY=0;entryDx=0;entryDy=0;endArrow=none;endFill=0;" edge="1" parent="1" source="aMjsHxabeolqDeIkSZId-25" target="dxCw5hH_hTkIz4HJF2Ry-12">
          <mxGeometry relative="1" as="geometry" />
        </mxCell>
        <mxCell id="aMjsHxabeolqDeIkSZId-25" value="&lt;span style=&quot;border-bottom: 1px dotted&quot;&gt;&lt;font style=&quot;font-size: 9px;&quot;&gt;Id_producto&lt;/font&gt;&lt;/span&gt;" style="ellipse;whiteSpace=wrap;html=1;align=center;" vertex="1" parent="1">
          <mxGeometry x="-300" y="30" width="60" height="30" as="geometry" />
        </mxCell>
        <mxCell id="aMjsHxabeolqDeIkSZId-36" style="edgeStyle=orthogonalEdgeStyle;rounded=0;orthogonalLoop=1;jettySize=auto;html=1;entryX=0;entryY=1;entryDx=0;entryDy=0;endArrow=none;endFill=0;" edge="1" parent="1" source="aMjsHxabeolqDeIkSZId-26" target="dxCw5hH_hTkIz4HJF2Ry-22">
          <mxGeometry relative="1" as="geometry">
            <Array as="points">
              <mxPoint x="150" y="780" />
              <mxPoint x="175" y="780" />
            </Array>
          </mxGeometry>
        </mxCell>
        <mxCell id="aMjsHxabeolqDeIkSZId-26" value="&lt;span style=&quot;border-bottom: 1px dotted&quot;&gt;&lt;font style=&quot;font-size: 9px;&quot;&gt;Id_usuario&lt;/font&gt;&lt;/span&gt;" style="ellipse;whiteSpace=wrap;html=1;align=center;" vertex="1" parent="1">
          <mxGeometry x="100" y="820" width="60" height="30" as="geometry" />
        </mxCell>
        <mxCell id="aMjsHxabeolqDeIkSZId-27" value="&lt;span style=&quot;border-bottom: 1px dotted&quot;&gt;&lt;font style=&quot;font-size: 9px;&quot;&gt;Id_usuario&lt;/font&gt;&lt;/span&gt;" style="ellipse;whiteSpace=wrap;html=1;align=center;" vertex="1" parent="1">
          <mxGeometry x="420" y="365" width="60" height="30" as="geometry" />
        </mxCell>
        <mxCell id="aMjsHxabeolqDeIkSZId-42" style="edgeStyle=orthogonalEdgeStyle;rounded=0;orthogonalLoop=1;jettySize=auto;html=1;entryX=0.75;entryY=0;entryDx=0;entryDy=0;endArrow=none;endFill=0;" edge="1" parent="1" source="aMjsHxabeolqDeIkSZId-28" target="dxCw5hH_hTkIz4HJF2Ry-20">
          <mxGeometry relative="1" as="geometry">
            <Array as="points">
              <mxPoint x="455" y="280" />
              <mxPoint x="400" y="280" />
            </Array>
          </mxGeometry>
        </mxCell>
        <mxCell id="aMjsHxabeolqDeIkSZId-28" value="&lt;span style=&quot;border-bottom: 1px dotted&quot;&gt;&lt;font style=&quot;font-size: 9px;&quot;&gt;Id_tarjeta&lt;/font&gt;&lt;/span&gt;" style="ellipse;whiteSpace=wrap;html=1;align=center;" vertex="1" parent="1">
          <mxGeometry x="425" y="230" width="60" height="30" as="geometry" />
        </mxCell>
        <mxCell id="aMjsHxabeolqDeIkSZId-41" style="edgeStyle=orthogonalEdgeStyle;rounded=0;orthogonalLoop=1;jettySize=auto;html=1;entryX=0.103;entryY=0.015;entryDx=0;entryDy=0;entryPerimeter=0;endArrow=none;endFill=0;" edge="1" parent="1" source="aMjsHxabeolqDeIkSZId-13" target="dxCw5hH_hTkIz4HJF2Ry-20">
          <mxGeometry relative="1" as="geometry" />
        </mxCell>
        <mxCell id="aMjsHxabeolqDeIkSZId-43" style="edgeStyle=orthogonalEdgeStyle;rounded=0;orthogonalLoop=1;jettySize=auto;html=1;entryX=0.75;entryY=1;entryDx=0;entryDy=0;endArrow=none;endFill=0;" edge="1" parent="1" source="aMjsHxabeolqDeIkSZId-27" target="dxCw5hH_hTkIz4HJF2Ry-20">
          <mxGeometry relative="1" as="geometry" />
        </mxCell>
        <mxCell id="aMjsHxabeolqDeIkSZId-92" style="edgeStyle=orthogonalEdgeStyle;rounded=0;orthogonalLoop=1;jettySize=auto;html=1;entryX=0.75;entryY=1;entryDx=0;entryDy=0;endArrow=none;endFill=0;" edge="1" parent="1" source="aMjsHxabeolqDeIkSZId-44" target="DulJp_5TrpF9KenEgapy-11">
          <mxGeometry relative="1" as="geometry" />
        </mxCell>
        <mxCell id="aMjsHxabeolqDeIkSZId-44" value="&lt;font size=&quot;1&quot;&gt;Contrasena&lt;/font&gt;" style="ellipse;whiteSpace=wrap;html=1;align=center;" vertex="1" parent="1">
          <mxGeometry x="-190" y="320" width="60" height="30" as="geometry" />
        </mxCell>
        <mxCell id="aMjsHxabeolqDeIkSZId-88" style="edgeStyle=orthogonalEdgeStyle;rounded=0;orthogonalLoop=1;jettySize=auto;html=1;entryX=0.25;entryY=0;entryDx=0;entryDy=0;endArrow=none;endFill=0;" edge="1" parent="1" source="aMjsHxabeolqDeIkSZId-46" target="DulJp_5TrpF9KenEgapy-11">
          <mxGeometry relative="1" as="geometry" />
        </mxCell>
        <mxCell id="aMjsHxabeolqDeIkSZId-46" value="&lt;font size=&quot;1&quot;&gt;Nombre&lt;/font&gt;" style="ellipse;whiteSpace=wrap;html=1;align=center;" vertex="1" parent="1">
          <mxGeometry x="-290" y="180" width="60" height="20" as="geometry" />
        </mxCell>
        <mxCell id="aMjsHxabeolqDeIkSZId-90" style="edgeStyle=orthogonalEdgeStyle;rounded=0;orthogonalLoop=1;jettySize=auto;html=1;entryX=1;entryY=0.25;entryDx=0;entryDy=0;endArrow=none;endFill=0;" edge="1" parent="1" source="aMjsHxabeolqDeIkSZId-47" target="DulJp_5TrpF9KenEgapy-11">
          <mxGeometry relative="1" as="geometry">
            <Array as="points">
              <mxPoint x="-138" y="205" />
              <mxPoint x="-138" y="250" />
            </Array>
          </mxGeometry>
        </mxCell>
        <mxCell id="aMjsHxabeolqDeIkSZId-47" value="&lt;font size=&quot;1&quot;&gt;DNI&lt;/font&gt;" style="ellipse;whiteSpace=wrap;html=1;align=center;" vertex="1" parent="1">
          <mxGeometry x="-125" y="190" width="60" height="30" as="geometry" />
        </mxCell>
        <mxCell id="aMjsHxabeolqDeIkSZId-89" style="edgeStyle=orthogonalEdgeStyle;rounded=0;orthogonalLoop=1;jettySize=auto;html=1;entryX=0.75;entryY=0;entryDx=0;entryDy=0;endArrow=none;endFill=0;" edge="1" parent="1" source="aMjsHxabeolqDeIkSZId-48" target="DulJp_5TrpF9KenEgapy-11">
          <mxGeometry relative="1" as="geometry" />
        </mxCell>
        <mxCell id="aMjsHxabeolqDeIkSZId-48" value="&lt;font size=&quot;1&quot;&gt;Apellidos&lt;/font&gt;" style="ellipse;whiteSpace=wrap;html=1;align=center;" vertex="1" parent="1">
          <mxGeometry x="-200" y="160" width="60" height="30" as="geometry" />
        </mxCell>
        <mxCell id="aMjsHxabeolqDeIkSZId-50" value="&lt;font size=&quot;1&quot;&gt;Fecha de caducidad&lt;/font&gt;" style="ellipse;whiteSpace=wrap;html=1;align=center;" vertex="1" parent="1">
          <mxGeometry x="100" y="710" width="60" height="40" as="geometry" />
        </mxCell>
        <mxCell id="aMjsHxabeolqDeIkSZId-51" value="&lt;font size=&quot;1&quot;&gt;CVV&lt;/font&gt;" style="ellipse;whiteSpace=wrap;html=1;align=center;" vertex="1" parent="1">
          <mxGeometry x="190" y="670" width="60" height="30" as="geometry" />
        </mxCell>
        <mxCell id="aMjsHxabeolqDeIkSZId-72" style="edgeStyle=orthogonalEdgeStyle;rounded=0;orthogonalLoop=1;jettySize=auto;html=1;entryX=0.75;entryY=0;entryDx=0;entryDy=0;endArrow=none;endFill=0;" edge="1" parent="1" source="aMjsHxabeolqDeIkSZId-52" target="dxCw5hH_hTkIz4HJF2Ry-22">
          <mxGeometry relative="1" as="geometry">
            <Array as="points">
              <mxPoint x="250" y="715" />
            </Array>
          </mxGeometry>
        </mxCell>
        <mxCell id="aMjsHxabeolqDeIkSZId-52" value="&lt;font size=&quot;1&quot;&gt;NÂº_tarjeta&lt;/font&gt;" style="ellipse;whiteSpace=wrap;html=1;align=center;" vertex="1" parent="1">
          <mxGeometry x="275" y="700" width="60" height="30" as="geometry" />
        </mxCell>
        <mxCell id="aMjsHxabeolqDeIkSZId-76" style="edgeStyle=orthogonalEdgeStyle;rounded=0;orthogonalLoop=1;jettySize=auto;html=1;entryX=0.75;entryY=1;entryDx=0;entryDy=0;endArrow=none;endFill=0;" edge="1" parent="1" source="aMjsHxabeolqDeIkSZId-53" target="dxCw5hH_hTkIz4HJF2Ry-22">
          <mxGeometry relative="1" as="geometry" />
        </mxCell>
        <mxCell id="aMjsHxabeolqDeIkSZId-53" value="&lt;font size=&quot;1&quot;&gt;Titular&lt;/font&gt;" style="ellipse;whiteSpace=wrap;html=1;align=center;" vertex="1" parent="1">
          <mxGeometry x="290" y="820" width="60" height="30" as="geometry" />
        </mxCell>
        <mxCell id="aMjsHxabeolqDeIkSZId-65" style="edgeStyle=orthogonalEdgeStyle;rounded=0;orthogonalLoop=1;jettySize=auto;html=1;entryX=0.5;entryY=0;entryDx=0;entryDy=0;endArrow=none;endFill=0;" edge="1" parent="1" source="aMjsHxabeolqDeIkSZId-54" target="dxCw5hH_hTkIz4HJF2Ry-29">
          <mxGeometry relative="1" as="geometry" />
        </mxCell>
        <mxCell id="aMjsHxabeolqDeIkSZId-54" value="&lt;font style=&quot;font-size: 9px;&quot;&gt;Fecha de compra&lt;/font&gt;" style="ellipse;whiteSpace=wrap;html=1;align=center;" vertex="1" parent="1">
          <mxGeometry x="160" width="60" height="40" as="geometry" />
        </mxCell>
        <mxCell id="aMjsHxabeolqDeIkSZId-79" style="edgeStyle=orthogonalEdgeStyle;rounded=0;orthogonalLoop=1;jettySize=auto;html=1;entryX=0.75;entryY=1;entryDx=0;entryDy=0;endArrow=none;endFill=0;" edge="1" parent="1" source="aMjsHxabeolqDeIkSZId-55" target="dxCw5hH_hTkIz4HJF2Ry-14">
          <mxGeometry relative="1" as="geometry" />
        </mxCell>
        <mxCell id="aMjsHxabeolqDeIkSZId-55" value="&lt;font size=&quot;1&quot;&gt;DescripciÃ³n&lt;/font&gt;" style="ellipse;whiteSpace=wrap;html=1;align=center;" vertex="1" parent="1">
          <mxGeometry x="-350" y="500" width="60" height="30" as="geometry" />
        </mxCell>
        <mxCell id="aMjsHxabeolqDeIkSZId-80" style="edgeStyle=orthogonalEdgeStyle;rounded=0;orthogonalLoop=1;jettySize=auto;html=1;entryX=0.25;entryY=1;entryDx=0;entryDy=0;endArrow=none;endFill=0;" edge="1" parent="1" source="aMjsHxabeolqDeIkSZId-56" target="dxCw5hH_hTkIz4HJF2Ry-14">
          <mxGeometry relative="1" as="geometry" />
        </mxCell>
        <mxCell id="aMjsHxabeolqDeIkSZId-56" value="&lt;font size=&quot;1&quot;&gt;Precio&lt;/font&gt;" style="ellipse;whiteSpace=wrap;html=1;align=center;" vertex="1" parent="1">
          <mxGeometry x="-490" y="510" width="60" height="30" as="geometry" />
        </mxCell>
        <mxCell id="aMjsHxabeolqDeIkSZId-81" style="edgeStyle=orthogonalEdgeStyle;rounded=0;orthogonalLoop=1;jettySize=auto;html=1;entryX=0;entryY=0.5;entryDx=0;entryDy=0;endArrow=none;endFill=0;" edge="1" parent="1" source="aMjsHxabeolqDeIkSZId-57" target="dxCw5hH_hTkIz4HJF2Ry-14">
          <mxGeometry relative="1" as="geometry" />
        </mxCell>
        <mxCell id="aMjsHxabeolqDeIkSZId-57" value="&lt;font size=&quot;1&quot;&gt;Fecha de Inicio&lt;/font&gt;" style="ellipse;whiteSpace=wrap;html=1;align=center;" vertex="1" parent="1">
          <mxGeometry x="-530" y="430" width="60" height="40" as="geometry" />
        </mxCell>
        <mxCell id="aMjsHxabeolqDeIkSZId-83" style="edgeStyle=orthogonalEdgeStyle;rounded=0;orthogonalLoop=1;jettySize=auto;html=1;entryX=0.25;entryY=0;entryDx=0;entryDy=0;endArrow=none;endFill=0;" edge="1" parent="1" source="aMjsHxabeolqDeIkSZId-58" target="dxCw5hH_hTkIz4HJF2Ry-14">
          <mxGeometry relative="1" as="geometry" />
        </mxCell>
        <mxCell id="aMjsHxabeolqDeIkSZId-58" value="&lt;font size=&quot;1&quot;&gt;Fecha de Fin&lt;/font&gt;" style="ellipse;whiteSpace=wrap;html=1;align=center;" vertex="1" parent="1">
          <mxGeometry x="-470" y="350" width="60" height="40" as="geometry" />
        </mxCell>
        <mxCell id="aMjsHxabeolqDeIkSZId-78" style="edgeStyle=orthogonalEdgeStyle;rounded=0;orthogonalLoop=1;jettySize=auto;html=1;entryX=1;entryY=0.5;entryDx=0;entryDy=0;endArrow=none;endFill=0;" edge="1" parent="1" source="aMjsHxabeolqDeIkSZId-59" target="dxCw5hH_hTkIz4HJF2Ry-14">
          <mxGeometry relative="1" as="geometry" />
        </mxCell>
        <mxCell id="aMjsHxabeolqDeIkSZId-59" value="&lt;font size=&quot;1&quot;&gt;Nombre&lt;/font&gt;" style="ellipse;whiteSpace=wrap;html=1;align=center;" vertex="1" parent="1">
          <mxGeometry x="-298" y="435" width="60" height="30" as="geometry" />
        </mxCell>
        <mxCell id="aMjsHxabeolqDeIkSZId-91" style="edgeStyle=orthogonalEdgeStyle;rounded=0;orthogonalLoop=1;jettySize=auto;html=1;entryX=1;entryY=0.75;entryDx=0;entryDy=0;endArrow=none;endFill=0;" edge="1" parent="1" source="aMjsHxabeolqDeIkSZId-63" target="DulJp_5TrpF9KenEgapy-11">
          <mxGeometry relative="1" as="geometry" />
        </mxCell>
        <mxCell id="aMjsHxabeolqDeIkSZId-63" value="&lt;font size=&quot;1&quot;&gt;Correo&lt;/font&gt;" style="ellipse;whiteSpace=wrap;html=1;align=center;" vertex="1" parent="1">
          <mxGeometry x="-125" y="270" width="60" height="30" as="geometry" />
        </mxCell>
        <mxCell id="aMjsHxabeolqDeIkSZId-66" style="edgeStyle=orthogonalEdgeStyle;rounded=0;orthogonalLoop=1;jettySize=auto;html=1;entryX=0.359;entryY=1.037;entryDx=0;entryDy=0;entryPerimeter=0;endArrow=none;endFill=0;" edge="1" parent="1" source="aMjsHxabeolqDeIkSZId-12" target="dxCw5hH_hTkIz4HJF2Ry-22">
          <mxGeometry relative="1" as="geometry" />
        </mxCell>
        <mxCell id="aMjsHxabeolqDeIkSZId-73" style="edgeStyle=orthogonalEdgeStyle;rounded=0;orthogonalLoop=1;jettySize=auto;html=1;entryX=0.391;entryY=-0.003;entryDx=0;entryDy=0;entryPerimeter=0;endArrow=none;endFill=0;" edge="1" parent="1" source="aMjsHxabeolqDeIkSZId-51" target="dxCw5hH_hTkIz4HJF2Ry-22">
          <mxGeometry relative="1" as="geometry" />
        </mxCell>
        <mxCell id="aMjsHxabeolqDeIkSZId-74" style="edgeStyle=orthogonalEdgeStyle;rounded=0;orthogonalLoop=1;jettySize=auto;html=1;entryX=0.135;entryY=0.013;entryDx=0;entryDy=0;entryPerimeter=0;endArrow=none;endFill=0;" edge="1" parent="1" source="aMjsHxabeolqDeIkSZId-50" target="dxCw5hH_hTkIz4HJF2Ry-22">
          <mxGeometry relative="1" as="geometry" />
        </mxCell>
        <mxCell id="aMjsHxabeolqDeIkSZId-86" style="edgeStyle=orthogonalEdgeStyle;rounded=0;orthogonalLoop=1;jettySize=auto;html=1;entryX=0.25;entryY=1;entryDx=0;entryDy=0;endArrow=none;endFill=0;" edge="1" parent="1" source="aMjsHxabeolqDeIkSZId-85" target="DulJp_5TrpF9KenEgapy-11">
          <mxGeometry relative="1" as="geometry" />
        </mxCell>
        <mxCell id="aMjsHxabeolqDeIkSZId-85" value="&lt;font size=&quot;1&quot;&gt;Fecha de nacimiento&lt;/font&gt;" style="ellipse;whiteSpace=wrap;html=1;align=center;" vertex="1" parent="1">
          <mxGeometry x="-326" y="290" width="60" height="50" as="geometry" />
        </mxCell>
        <mxCell id="aMjsHxabeolqDeIkSZId-93" value="1,1" style="text;html=1;align=center;verticalAlign=middle;resizable=0;points=[];autosize=1;strokeColor=none;fillColor=none;" vertex="1" parent="1">
          <mxGeometry x="-210" y="430" width="40" height="30" as="geometry" />
        </mxCell>
        <mxCell id="aMjsHxabeolqDeIkSZId-94" value="1,1" style="text;html=1;align=center;verticalAlign=middle;resizable=0;points=[];autosize=1;strokeColor=none;fillColor=none;" vertex="1" parent="1">
          <mxGeometry x="-135" y="578" width="40" height="30" as="geometry" />
        </mxCell>
        <mxCell id="aMjsHxabeolqDeIkSZId-95" value="0,1" style="text;html=1;align=center;verticalAlign=middle;resizable=0;points=[];autosize=1;strokeColor=none;fillColor=none;" vertex="1" parent="1">
          <mxGeometry x="-203" y="730" width="40" height="30" as="geometry" />
        </mxCell>
        <mxCell id="aMjsHxabeolqDeIkSZId-96" value="1,1" style="text;html=1;align=center;verticalAlign=middle;resizable=0;points=[];autosize=1;strokeColor=none;fillColor=none;" vertex="1" parent="1">
          <mxGeometry x="-293" y="590" width="40" height="30" as="geometry" />
        </mxCell>
        <mxCell id="aMjsHxabeolqDeIkSZId-97" value="1,n" style="text;html=1;align=center;verticalAlign=middle;resizable=0;points=[];autosize=1;strokeColor=none;fillColor=none;" vertex="1" parent="1">
          <mxGeometry x="10" y="275" width="40" height="30" as="geometry" />
        </mxCell>
        <mxCell id="aMjsHxabeolqDeIkSZId-98" value="1,1" style="text;html=1;align=center;verticalAlign=middle;resizable=0;points=[];autosize=1;strokeColor=none;fillColor=none;" vertex="1" parent="1">
          <mxGeometry x="380" y="178" width="40" height="30" as="geometry" />
        </mxCell>
        <mxCell id="aMjsHxabeolqDeIkSZId-99" value="0,n" style="text;html=1;align=center;verticalAlign=middle;resizable=0;points=[];autosize=1;strokeColor=none;fillColor=none;" vertex="1" parent="1">
          <mxGeometry x="115" y="438" width="40" height="30" as="geometry" />
        </mxCell>
        <mxCell id="aMjsHxabeolqDeIkSZId-100" value="1,1" style="text;html=1;align=center;verticalAlign=middle;resizable=0;points=[];autosize=1;strokeColor=none;fillColor=none;" vertex="1" parent="1">
          <mxGeometry x="255" y="280" width="40" height="30" as="geometry" />
        </mxCell>
        <mxCell id="aMjsHxabeolqDeIkSZId-101" value="1,n" style="text;html=1;align=center;verticalAlign=middle;resizable=0;points=[];autosize=1;strokeColor=none;fillColor=none;" vertex="1" parent="1">
          <mxGeometry x="140" y="250" width="40" height="30" as="geometry" />
        </mxCell>
        <mxCell id="aMjsHxabeolqDeIkSZId-102" value="1,n" style="text;html=1;align=center;verticalAlign=middle;resizable=0;points=[];autosize=1;strokeColor=none;fillColor=none;" vertex="1" parent="1">
          <mxGeometry x="170" y="138" width="40" height="30" as="geometry" />
        </mxCell>
        <mxCell id="aMjsHxabeolqDeIkSZId-103" value="0,n" style="text;html=1;align=center;verticalAlign=middle;resizable=0;points=[];autosize=1;strokeColor=none;fillColor=none;" vertex="1" parent="1">
          <mxGeometry x="370" y="468" width="40" height="30" as="geometry" />
        </mxCell>
        <mxCell id="aMjsHxabeolqDeIkSZId-104" value="1,1" style="text;html=1;align=center;verticalAlign=middle;resizable=0;points=[];autosize=1;strokeColor=none;fillColor=none;" vertex="1" parent="1">
          <mxGeometry x="370" y="700" width="40" height="30" as="geometry" />
        </mxCell>
        <mxCell id="aMjsHxabeolqDeIkSZId-105" value="1,n" style="text;html=1;align=center;verticalAlign=middle;resizable=0;points=[];autosize=1;strokeColor=none;fillColor=none;" vertex="1" parent="1">
          <mxGeometry x="440" y="590" width="40" height="30" as="geometry" />
        </mxCell>
        <mxCell id="aMjsHxabeolqDeIkSZId-106" value="1,1" style="text;html=1;align=center;verticalAlign=middle;resizable=0;points=[];autosize=1;strokeColor=none;fillColor=none;" vertex="1" parent="1">
          <mxGeometry x="75" y="770" width="40" height="30" as="geometry" />
        </mxCell>
        <mxCell id="aMjsHxabeolqDeIkSZId-108" value="0,n" style="text;html=1;align=center;verticalAlign=middle;resizable=0;points=[];autosize=1;strokeColor=none;fillColor=none;" vertex="1" parent="1">
          <mxGeometry x="-20" y="670" width="40" height="30" as="geometry" />
        </mxCell>
        <mxCell id="aMjsHxabeolqDeIkSZId-109" value="1,n" style="text;html=1;align=center;verticalAlign=middle;resizable=0;points=[];autosize=1;strokeColor=none;fillColor=none;" vertex="1" parent="1">
          <mxGeometry x="-35" y="800" width="40" height="30" as="geometry" />
        </mxCell>
        <mxCell id="aMjsHxabeolqDeIkSZId-110" value="0,n" style="text;html=1;align=center;verticalAlign=middle;resizable=0;points=[];autosize=1;strokeColor=none;fillColor=none;" vertex="1" parent="1">
          <mxGeometry x="-345" y="850" width="40" height="30" as="geometry" />
        </mxCell>
        <mxCell id="aMjsHxabeolqDeIkSZId-111" value="n,m" style="text;html=1;align=center;verticalAlign=middle;resizable=0;points=[];autosize=1;strokeColor=none;fillColor=none;" vertex="1" parent="1">
          <mxGeometry x="-390" y="585" width="40" height="30" as="geometry" />
        </mxCell>
        <mxCell id="aMjsHxabeolqDeIkSZId-112" value="n,m" style="text;html=1;align=center;verticalAlign=middle;resizable=0;points=[];autosize=1;strokeColor=none;fillColor=none;" vertex="1" parent="1">
          <mxGeometry x="-505" y="700" width="40" height="30" as="geometry" />
        </mxCell>
        <mxCell id="aMjsHxabeolqDeIkSZId-113" value="0,n" style="text;html=1;align=center;verticalAlign=middle;resizable=0;points=[];autosize=1;strokeColor=none;fillColor=none;" vertex="1" parent="1">
          <mxGeometry x="-420" y="150" width="40" height="30" as="geometry" />
        </mxCell>
        <mxCell id="aMjsHxabeolqDeIkSZId-114" value="1,n" style="text;html=1;align=center;verticalAlign=middle;resizable=0;points=[];autosize=1;strokeColor=none;fillColor=none;" vertex="1" parent="1">
          <mxGeometry x="-40" y="200" width="40" height="30" as="geometry" />
        </mxCell>
        <mxCell id="aMjsHxabeolqDeIkSZId-115" value="1,n" style="text;html=1;align=center;verticalAlign=middle;resizable=0;points=[];autosize=1;strokeColor=none;fillColor=none;" vertex="1" parent="1">
          <mxGeometry x="-228" y="50" width="40" height="30" as="geometry" />
        </mxCell>
      </root>
    </mxGraphModel>
  </diagram>
  <diagram id="jBfGiBJL4ow7o7_SUpc4" name="PÃ¡gina-2">
    <mxGraphModel dx="1050" dy="621" grid="1" gridSize="10" guides="1" tooltips="1" connect="1" arrows="1" fold="1" page="1" pageScale="1" pageWidth="827" pageHeight="1169" math="0" shadow="0">
      <root>
        <mxCell id="0" />
        <mxCell id="1" parent="0" />
      </root>
    </mxGraphModel>
  </diagram>
</mxfile>
